<?xml version="1.0" encoding="UTF-8"?>
<svg width="24px" height="24px" viewBox="0 0 24 24" version="1.1" xmlns="http://www.w3.org/2000/svg" xmlns:xlink="http://www.w3.org/1999/xlink">
    <!-- Generator: Sketch 52.6 (67491) - http://www.bohemiancoding.com/sketch -->
    <title>button-insigniaInfluencer</title>
    <desc>Created with Sketch.</desc>
    <g id="button-insigniaInfluencer" stroke="none" stroke-width="1" fill="none" fill-rule="evenodd">
        <circle id="Oval" fill="#FF5A60" fill-rule="nonzero" cx="12" cy="12" r="11"></circle>
        <path d="M19.7960999,9.77145963 C19.6412748,9.353237 19.2429284,9.07520628 18.7969691,9.07410415 L14.4761283,9.07410415 L12.9287118,4.69218118 C12.7721565,4.27351291 12.3708907,3.99709841 11.9239186,4.00002298 C11.4769464,4.00294756 11.079332,4.28458919 10.9282687,4.70527023 L9.38594233,9.07410415 L5.06510159,9.07410415 C4.61712861,9.07451701 4.21720569,9.35495497 4.06417925,9.77598095 C3.91115281,10.1970069 4.03767407,10.6687867 4.38083516,10.9567458 L8.03922455,13.9883151 L6.50416989,18.5942063 C6.35629069,19.034362 6.51053896,19.5195989 6.88542832,19.7935757 C7.26031769,20.0675525 7.76948092,20.0671503 8.14393695,19.7925815 L11.9310353,17.017703 L15.7174065,19.7940359 C16.0914127,20.0680576 16.5997038,20.0687109 16.9744132,19.7956514 C17.3491226,19.522592 17.504192,19.0385323 17.3579008,18.5985693 L15.8221189,13.9897695 L19.4885072,10.9509284 C19.8271136,10.6604765 19.949735,10.1902829 19.7960999,9.77145963 Z" id="Shape" fill="#FFFFFF" fill-rule="nonzero"></path>
    </g>
</svg>