<?xml version="1.0" encoding="UTF-8"?>
<svg width="24px" height="24px" viewBox="0 0 24 24" version="1.1" xmlns="http://www.w3.org/2000/svg" xmlns:xlink="http://www.w3.org/1999/xlink">
    <!-- Generator: Sketch 52.6 (67491) - http://www.bohemiancoding.com/sketch -->
    <title>ic-activity</title>
    <desc>Created with Sketch.</desc>
    <g id="ic-activity" stroke="none" stroke-width="1" fill="none" fill-rule="evenodd">
        <path d="M14.2163333,20.25 C14.3331384,20.2493565 14.4314226,20.3373366 14.4436667,20.4535 C14.4536557,20.538074 14.4585534,20.6231718 14.4583333,20.7083333 C14.4583333,21.9739859 13.4323192,23 12.1666667,23 C10.9010141,23 9.875,21.9739859 9.875,20.7083333 C9.87477991,20.6231718 9.87967762,20.538074 9.88966667,20.4535 C9.90271273,20.3377487 10.000516,20.250199 10.117,20.25 L14.2163333,20.25 Z M20.4166667,17.0416667 C20.9229277,17.0416667 21.3333333,17.4520723 21.3333333,17.9583333 C21.3333333,18.4645944 20.9229277,18.875 20.4166667,18.875 L3.91666667,18.875 C3.41040565,18.875 3,18.4645944 3,17.9583333 C3,17.4520723 3.41040565,17.0416667 3.91666667,17.0416667 C4.6760582,17.0416667 5.29166667,16.4260582 5.29166667,15.6666667 L5.29166667,11.2098333 C5.1822976,7.61317051 7.71220385,4.47414069 11.25,3.81691667 L11.25,1.91666667 C11.25,1.41040565 11.6604056,1 12.1666667,1 C12.6729277,1 13.0833333,1.41040565 13.0833333,1.91666667 L13.0833333,3.81691667 C16.6211295,4.47414069 19.1510357,7.61317051 19.0416667,11.2098333 L19.0416667,15.6666667 C19.0416667,16.4260582 19.6572751,17.0416667 20.4166667,17.0416667 Z" id="Shape-2" fill="#000000" fill-rule="nonzero"></path>
    </g>
</svg>