<?xml version="1.0" encoding="UTF-8"?>
<svg width="24px" height="24px" viewBox="0 0 24 24" version="1.1" xmlns="http://www.w3.org/2000/svg" xmlns:xlink="http://www.w3.org/1999/xlink">
    <!-- Generator: Sketch 52.6 (67491) - http://www.bohemiancoding.com/sketch -->
    <title>ic-event</title>
    <desc>Created with Sketch.</desc>
    <g id="ic-event" stroke="none" stroke-width="1" fill="none" fill-rule="evenodd">
        <path d="M20.25,3.75 L17.7291667,3.75 C17.6026014,3.75 17.5,3.64739859 17.5,3.52083333 L17.5,1.91666667 C17.5,1.41040565 17.0895944,1 16.5833333,1 C16.0770723,1 15.6666667,1.41040565 15.6666667,1.91666667 L15.6666667,6.27083333 C15.6666667,6.6505291 15.3588624,6.95833333 14.9791667,6.95833333 C14.5994709,6.95833333 14.2916667,6.6505291 14.2916667,6.27083333 L14.2916667,4.20833333 C14.2916667,3.95520282 14.0864638,3.75 13.8333333,3.75 L8.10416667,3.75 C7.97795853,3.75000101 7.87550483,3.64795713 7.875,3.52175 L7.875,1.91666667 C7.875,1.41040565 7.46459435,1 6.95833333,1 C6.45207231,1 6.04166667,1.41040565 6.04166667,1.91666667 L6.04166667,6.27083333 C6.04166667,6.6505291 5.73386243,6.95833333 5.35416667,6.95833333 C4.9744709,6.95833333 4.66666667,6.6505291 4.66666667,6.27083333 L4.66666667,4.20833333 C4.66666667,3.95520282 4.46146384,3.75 4.20833333,3.75 L2.83333333,3.75 C1.82081129,3.75 1,4.57081129 1,5.58333333 L1,21.1666667 C1,22.1791887 1.82081129,23 2.83333333,23 L20.25,23 C21.262522,23 22.0833333,22.1791887 22.0833333,21.1666667 L22.0833333,5.58333333 C22.0833333,4.57081129 21.262522,3.75 20.25,3.75 Z M20.25,20.7083333 C20.25,20.9614638 20.0447972,21.1666667 19.7916667,21.1666667 L3.29166667,21.1666667 C3.03853616,21.1666667 2.83333333,20.9614638 2.83333333,20.7083333 L2.83333333,9.70833333 C2.83333333,9.45520282 3.03853616,9.25 3.29166667,9.25 L19.7916667,9.25 C20.0447972,9.25 20.25,9.45520282 20.25,9.70833333 L20.25,20.7083333 Z M7.41666667,10.625 L6.5,10.625 C5.99373898,10.625 5.58333333,11.0354056 5.58333333,11.5416667 C5.58333333,12.0479277 5.99373898,12.4583333 6.5,12.4583333 L7.41666667,12.4583333 C7.92292769,12.4583333 8.33333333,12.0479277 8.33333333,11.5416667 C8.33333333,11.0354056 7.92292769,10.625 7.41666667,10.625 Z M12,10.625 L11.0833333,10.625 C10.5770723,10.625 10.1666667,11.0354056 10.1666667,11.5416667 C10.1666667,12.0479277 10.5770723,12.4583333 11.0833333,12.4583333 L12,12.4583333 C12.506261,12.4583333 12.9166667,12.0479277 12.9166667,11.5416667 C12.9166667,11.0354056 12.506261,10.625 12,10.625 Z M16.5833333,10.625 L15.6666667,10.625 C15.1604056,10.625 14.75,11.0354056 14.75,11.5416667 C14.75,12.0479277 15.1604056,12.4583333 15.6666667,12.4583333 L16.5833333,12.4583333 C17.0895944,12.4583333 17.5,12.0479277 17.5,11.5416667 C17.5,11.0354056 17.0895944,10.625 16.5833333,10.625 Z M7.41666667,14.2916667 L6.5,14.2916667 C5.99373898,14.2916667 5.58333333,14.7020723 5.58333333,15.2083333 C5.58333333,15.7145944 5.99373898,16.125 6.5,16.125 L7.41666667,16.125 C7.92292769,16.125 8.33333333,15.7145944 8.33333333,15.2083333 C8.33333333,14.7020723 7.92292769,14.2916667 7.41666667,14.2916667 Z M12,14.2916667 L11.0833333,14.2916667 C10.5770723,14.2916667 10.1666667,14.7020723 10.1666667,15.2083333 C10.1666667,15.7145944 10.5770723,16.125 11.0833333,16.125 L12,16.125 C12.506261,16.125 12.9166667,15.7145944 12.9166667,15.2083333 C12.9166667,14.7020723 12.506261,14.2916667 12,14.2916667 Z M16.5833333,14.2916667 L15.6666667,14.2916667 C15.1604056,14.2916667 14.75,14.7020723 14.75,15.2083333 C14.75,15.7145944 15.1604056,16.125 15.6666667,16.125 L16.5833333,16.125 C17.0895944,16.125 17.5,15.7145944 17.5,15.2083333 C17.5,14.7020723 17.0895944,14.2916667 16.5833333,14.2916667 Z M7.41666667,17.9583333 L6.5,17.9583333 C5.99373898,17.9583333 5.58333333,18.368739 5.58333333,18.875 C5.58333333,19.381261 5.99373898,19.7916667 6.5,19.7916667 L7.41666667,19.7916667 C7.92292769,19.7916667 8.33333333,19.381261 8.33333333,18.875 C8.33333333,18.368739 7.92292769,17.9583333 7.41666667,17.9583333 Z M12,17.9583333 L11.0833333,17.9583333 C10.5770723,17.9583333 10.1666667,18.368739 10.1666667,18.875 C10.1666667,19.381261 10.5770723,19.7916667 11.0833333,19.7916667 L12,19.7916667 C12.506261,19.7916667 12.9166667,19.381261 12.9166667,18.875 C12.9166667,18.368739 12.506261,17.9583333 12,17.9583333 Z M16.5833333,17.9583333 L15.6666667,17.9583333 C15.1604056,17.9583333 14.75,18.368739 14.75,18.875 C14.75,19.381261 15.1604056,19.7916667 15.6666667,19.7916667 L16.5833333,19.7916667 C17.0895944,19.7916667 17.5,19.381261 17.5,18.875 C17.5,18.368739 17.0895944,17.9583333 16.5833333,17.9583333 Z" id="Shape" fill="#000000" fill-rule="nonzero"></path>
    </g>
</svg>