<?xml version="1.0" encoding="UTF-8"?>
<svg width="24px" height="24px" viewBox="0 0 24 24" version="1.1" xmlns="http://www.w3.org/2000/svg" xmlns:xlink="http://www.w3.org/1999/xlink">
    <!-- Generator: Sketch 52.6 (67491) - http://www.bohemiancoding.com/sketch -->
    <title>ic-mensajes</title>
    <desc>Created with Sketch.</desc>
    <g id="ic-mensajes" stroke="none" stroke-width="1" fill="none" fill-rule="evenodd">
        <path d="M21.1666667,1 C22.1791887,1 23,1.82081129 23,2.83333333 L23,17.2083333 C23,18.2208554 22.1791887,19.0416667 21.1666667,19.0416667 L12.286,19.0416667 L6.56325,23.0044167 C6.28281952,23.198455 5.91785537,23.220783 5.6158628,23.0623765 C5.31387024,22.9039699 5.12477403,22.5910163 5.125,22.25 L5.125,19.0416667 L2.83333333,19.0416667 C2.35190341,19.0532571 1.88610541,18.8704022 1.54112924,18.5343954 C1.19615308,18.1983886 1.0010934,17.7375682 1,17.256 L1,2.83333333 C1,1.82081129 1.82081129,1 2.83333333,1 L21.1666667,1 Z M6.5,8.875 L17.5,8.875 C18.006261,8.875 18.4166667,8.46459435 18.4166667,7.95833333 C18.4166667,7.45207231 18.006261,7.04166667 17.5,7.04166667 L6.5,7.04166667 C5.99373898,7.04166667 5.58333333,7.45207231 5.58333333,7.95833333 C5.58333333,8.46459435 5.99373898,8.875 6.5,8.875 Z M6.5,13 L17.5,13 C18.006261,13 18.4166667,12.5895944 18.4166667,12.0833333 C18.4166667,11.5770723 18.006261,11.1666667 17.5,11.1666667 L6.5,11.1666667 C5.99373898,11.1666667 5.58333333,11.5770723 5.58333333,12.0833333 C5.58333333,12.5895944 5.99373898,13 6.5,13 Z" id="Shape" fill="#000000" fill-rule="nonzero"></path>
    </g>
</svg>