<?xml version="1.0" encoding="UTF-8"?>
<svg width="24px" height="24px" viewBox="0 0 24 24" version="1.1" xmlns="http://www.w3.org/2000/svg" xmlns:xlink="http://www.w3.org/1999/xlink">
    <!-- Generator: Sketch 52.6 (67491) - http://www.bohemiancoding.com/sketch -->
    <title>ic-map</title>
    <desc>Created with Sketch.</desc>
    <g id="ic-map" stroke="none" stroke-width="1" fill="none" fill-rule="evenodd">
        <path d="M11.8222186,1 C7.50413693,1.00454656 4.00484966,4.28512837 4,8.3333299 C4,11.5508284 8.8888866,19.3562414 10.9891523,22.5636566 C11.1671454,22.8348875 11.482537,23.0000794 11.8222186,22.9999897 C12.1625444,23.0015068 12.4787706,22.8355298 12.6552848,22.5627399 C14.7555505,19.3571581 19.6444371,11.5544951 19.6444371,8.3333299 C19.6395874,4.28512837 16.1403002,1.00454656 11.8222186,1 Z M11.8222186,11.5416617 C9.9321783,11.5416617 8.39999794,10.1052426 8.39999794,8.3333299 C8.39999794,6.56141715 9.9321783,5.12499807 11.8222186,5.12499807 C13.7122588,5.12499807 15.2444392,6.56141715 15.2444392,8.3333299 C15.2444392,10.1052426 13.7122588,11.5416617 11.8222186,11.5416617 Z" id="Shape" fill="#000000" fill-rule="nonzero"></path>
    </g>
</svg>