<?xml version="1.0" encoding="UTF-8"?>
<svg width="24px" height="24px" viewBox="0 0 24 24" version="1.1" xmlns="http://www.w3.org/2000/svg" xmlns:xlink="http://www.w3.org/1999/xlink">
    <!-- Generator: Sketch 52.6 (67491) - http://www.bohemiancoding.com/sketch -->
    <title>button-photo</title>
    <desc>Created with Sketch.</desc>
    <g id="button-photo" stroke="none" stroke-width="1" fill="none" fill-rule="evenodd">
        <circle id="Oval" fill="#FF5A60" fill-rule="nonzero" cx="12" cy="12" r="11"></circle>
        <path d="M17.1333333,17.2666667 L6.86666667,17.2666667 C5.83573513,17.2666667 5,16.4309315 5,15.4 L5,10.7333333 C5,9.7024018 5.83573513,8.86666667 6.86666667,8.86666667 L8.26666667,8.86666667 C8.43817205,8.85090637 8.60087636,8.78354679 8.73333333,8.67346667 L9.94013333,7.46666667 C10.2474172,7.18087265 10.6472982,7.01522187 11.0666667,7 L12.9333333,7 C13.3527018,7.01522187 13.7525828,7.18087265 14.0598667,7.46666667 L15.2666667,8.67346667 C15.3991236,8.78354679 15.561828,8.85090637 15.7333333,8.86666667 L17.1333333,8.86666667 C18.1642649,8.86666667 19,9.7024018 19,10.7333333 L19,15.4 C19,16.4309315 18.1642649,17.2666667 17.1333333,17.2666667 Z M12,15.8666667 C13.5463973,15.8666667 14.8,14.613064 14.8,13.0666667 C14.8,11.5202694 13.5463973,10.2666667 12,10.2666667 C10.4536027,10.2666667 9.2,11.5202694 9.2,13.0666667 C9.2,14.613064 10.4536027,15.8666667 12,15.8666667 Z" id="Shape" fill="#FFFFFF" fill-rule="nonzero"></path>
    </g>
</svg>