<?xml version="1.0" encoding="UTF-8"?>
<svg width="24px" height="24px" viewBox="0 0 24 24" version="1.1" xmlns="http://www.w3.org/2000/svg" xmlns:xlink="http://www.w3.org/1999/xlink">
    <!-- Generator: Sketch 52.6 (67491) - http://www.bohemiancoding.com/sketch -->
    <title>ic-bookmark</title>
    <desc>Created with Sketch.</desc>
    <g id="ic-bookmark" stroke="none" stroke-width="1" fill="none" fill-rule="evenodd">
        <path d="M19.0416667,1.18333333 L5.29166667,1.18333333 C4.27914463,1.18333333 3.45833333,2.00414463 3.45833333,3.01666667 L3.45833333,21.35 C3.42911591,21.883299 3.70144116,22.3879329 4.16325,22.65625 C4.64028613,22.8913659 5.20760343,22.8474287 5.64275,22.5416667 L12.042,18.4001667 C12.1179079,18.3512314 12.2154254,18.3512314 12.2913333,18.4001667 L18.6915,22.5416667 C19.1183778,22.8700573 19.6988744,22.9154712 20.171628,22.6574613 C20.6443816,22.3994514 20.9202395,21.8866735 20.875,21.35 L20.875,3.01666667 C20.875,2.00414463 20.0541887,1.18333333 19.0416667,1.18333333 Z M7.58333333,8.73208333 C7.58333333,6.10583333 10.8356667,5.15158333 11.9558333,7.80166667 C11.9911879,7.88690376 12.0743882,7.94246744 12.1666667,7.94246744 C12.2589451,7.94246744 12.3421454,7.88690376 12.3775,7.80166667 C13.4976667,5.15158333 16.75,6.10583333 16.75,8.73208333 C16.75,10.9210833 13.0686667,13.7994167 12.3050833,14.37325 C12.2235008,14.4340573 12.1116658,14.4340573 12.0300833,14.37325 C11.2655833,13.7994167 7.58333333,10.9210833 7.58333333,8.73208333 Z" id="Shape" fill="#000000" fill-rule="nonzero"></path>
    </g>
</svg>