<?xml version="1.0" encoding="UTF-8"?>
<svg width="24px" height="24px" viewBox="0 0 24 24" version="1.1" xmlns="http://www.w3.org/2000/svg" xmlns:xlink="http://www.w3.org/1999/xlink">
    <!-- Generator: Sketch 52.6 (67491) - http://www.bohemiancoding.com/sketch -->
    <title>ic-billing</title>
    <desc>Created with Sketch.</desc>
    <g id="ic-billing" stroke="none" stroke-width="1" fill="none" fill-rule="evenodd">
        <path d="M18.362089,1 L6.38228507,1 C5.61887011,1 5,1.61887011 5,2.38228507 L5,21.6541035 C5.00033576,22.0136562 5.20976286,22.340179 5.53641319,22.4904382 C5.86306352,22.6406973 6.2472772,22.5872493 6.52051358,22.3535398 L8.56445244,20.6026454 C8.64665859,20.5326185 8.76638076,20.5287935 8.85288926,20.5934301 L11.819273,22.8170661 C12.1475327,23.060978 12.5968414,23.060978 12.9251011,22.8170661 L15.8914848,20.5925086 C15.9779933,20.527872 16.0977155,20.531697 16.1799217,20.6017238 L18.2238605,22.3526183 C18.4969701,22.5862203 18.8809689,22.6397367 19.2075433,22.4897104 C19.5341177,22.3396841 19.7436795,22.0134895 19.7443741,21.6541035 L19.7443741,2.38228507 C19.7443741,1.61887011 19.125504,1 18.362089,1 Z M16.5190423,12.5190423 C16.1373348,12.5190423 15.8278997,12.2096072 15.8278997,11.8278997 C15.8278997,11.4461922 16.1373348,11.1367572 16.5190423,11.1367572 C16.9007497,11.1367572 17.2101848,11.4461922 17.2101848,11.8278997 C17.2101848,12.2096072 16.9007497,12.5190423 16.5190423,12.5190423 Z M17.2101848,15.5139933 C17.2101848,15.8957007 16.9007497,16.2051358 16.5190423,16.2051358 C16.1373348,16.2051358 15.8278997,15.8957007 15.8278997,15.5139933 C15.8278997,15.1322858 16.1373348,14.8228507 16.5190423,14.8228507 C16.7023447,14.8228507 16.8781395,14.8956673 17.0077538,15.0252817 C17.1373682,15.1548961 17.2101848,15.3306909 17.2101848,15.5139933 Z M16.5190423,8.6025679 C16.1373348,8.6025679 15.8278997,8.29313284 15.8278997,7.91142536 C15.8278997,7.52971788 16.1373348,7.22028282 16.5190423,7.22028282 C16.9007497,7.22028282 17.2101848,7.52971788 17.2101848,7.91142536 C17.2101848,8.29313284 16.9007497,8.6025679 16.5190423,8.6025679 Z M7.76457014,12.5190423 C7.38286266,12.5190423 7.07342761,12.2096072 7.07342761,11.8278997 C7.07342761,11.4461922 7.38286266,11.1367572 7.76457014,11.1367572 L13.2937104,11.1367572 C13.6754179,11.1367572 13.984853,11.4461922 13.984853,11.8278997 C13.984853,12.2096072 13.6754179,12.5190423 13.2937104,12.5190423 L7.76457014,12.5190423 Z M12.6025679,15.5139933 C12.6025679,15.6972957 12.5297513,15.8730905 12.4001369,16.0027048 C12.2705226,16.1323192 12.0947278,16.2051358 11.9114254,16.2051358 L7.76457014,16.2051358 C7.38286266,16.2051358 7.07342761,15.8957007 7.07342761,15.5139933 C7.07342761,15.1322858 7.38286266,14.8228507 7.76457014,14.8228507 L11.9114254,14.8228507 C12.2931328,14.8228507 12.6025679,15.1322858 12.6025679,15.5139933 Z M7.07342761,7.91142536 C7.07342761,7.52971788 7.38286266,7.22028282 7.76457014,7.22028282 L12.8329487,7.22028282 C13.2146562,7.22028284 13.5240912,7.52971789 13.5240912,7.91142536 C13.5240912,8.29313283 13.2146562,8.60256788 12.8329487,8.6025679 L7.76457014,8.6025679 C7.38286266,8.6025679 7.07342761,8.29313284 7.07342761,7.91142536 Z" id="Shape" fill="#000000" fill-rule="nonzero"></path>
    </g>
</svg>