<?xml version="1.0" encoding="UTF-8"?>
<svg width="24px" height="24px" viewBox="0 0 24 24" version="1.1" xmlns="http://www.w3.org/2000/svg" xmlns:xlink="http://www.w3.org/1999/xlink">
    <g id="ic-discover">
        <path  d="M10.6675509,1.13563579 C10.2152273,0.898138871 9.65865857,0.977943369 9.29385698,1.33260511 C8.92905539,1.68726684 8.84078917,2.23437373 9.07600289,2.68294589 C10.4555014,5.34462179 10.4687068,8.49360085 9.11157867,11.1664101 C9.0698521,11.2396313 8.9908739,11.2845787 8.90562961,11.2836181 C8.82038533,11.2826574 8.74247192,11.2359419 8.7024572,11.1617995 C8.45531955,10.7083549 8.27859728,10.2209792 8.17818256,9.71592215 C8.12874506,9.47985412 7.95869882,9.28584811 7.72880429,9.20322583 C7.49895554,9.12027695 7.24179232,9.16190939 7.05099207,9.3129576 C4.36576212,11.4218348 3.32242452,14.9692308 4.44740672,18.1652681 C5.51178758,21.1803315 8.46489971,23.1449696 11.7020571,22.9916215 C15.6612669,22.9916215 18.4296243,21.0136834 19.3002947,17.5677371 C20.591321,12.4804249 17.4232042,4.66180613 10.6675509,1.13563579 Z M15.1023527,17.6212198 C14.8687237,19.2029264 13.4370629,20.3401034 11.8181465,20.2298851 C10.2714745,20.2304994 8.94737038,19.1377891 8.67717967,17.6378179 C8.6493008,17.484906 8.70148226,17.3284471 8.81599286,17.2216058 C8.93050345,17.1147644 9.09194355,17.0719089 9.24545594,17.1076014 C10.1988802,17.0927443 11.0798144,16.6033745 11.5859678,15.8074183 C12.1689161,15.1997108 12.3349969,14.3113875 12.0100685,13.5390137 C11.913976,13.3702652 11.9350728,13.1603748 12.0628937,13.0134603 C12.1907146,12.8665457 12.398066,12.8138628 12.5820896,12.8815453 C14.4243396,13.7072783 15.4623754,15.6594364 15.1023527,17.6212198 Z" id="Shape" fill="#000000" fill-rule="nonzero"></path>
    </g>
</svg>