<?xml version="1.0" encoding="UTF-8"?>
<svg width="24px" height="24px" viewBox="0 0 24 24" version="1.1" xmlns="http://www.w3.org/2000/svg" xmlns:xlink="http://www.w3.org/1999/xlink">
    <!-- Generator: Sketch 52.6 (67491) - http://www.bohemiancoding.com/sketch -->
    <title>ic-edit</title>
    <desc>Created with Sketch.</desc>
    <g id="ic-edit" stroke="none" stroke-width="1" fill="none" fill-rule="evenodd">
        <path d="M22.3269384,3.63198652 C23.2237577,4.53161543 23.2237577,5.98722432 22.3269384,6.88685323 L21.0213035,8.19525432 C20.8412717,8.37523183 20.54944,8.37523183 20.3694081,8.19525432 L15.8052183,3.63198652 C15.6252408,3.45195465 15.6252408,3.16012298 15.8052183,2.98009112 L17.1126973,1.67353414 C18.012539,0.77548862 19.4695664,0.77548862 20.3694081,1.67353414 L22.3269384,3.63198652 Z M3.17578219,16.4264711 L7.57031328,20.8302227 C7.68843735,20.9482277 7.73352662,21.1208779 7.68818771,21.2815728 C7.64284879,21.4422677 7.51416834,21.56589 7.3517854,21.6047519 L1.56863412,22.9878398 C1.41286917,23.0240654 1.24939508,22.9781535 1.1352666,22.866128 C1.0218088,22.7528266 0.975368181,22.5887132 1.01263281,22.4327605 L2.401253,16.6449989 C2.44044285,16.4827954 2.56422382,16.3544299 2.72489556,16.3093696 C2.88530892,16.2640157 3.05771104,16.3087909 3.17578219,16.4264711 Z M14.8278362,4.61121271 L19.3846496,9.18093492 C19.5640134,9.3608607 19.5640134,9.65198248 19.3846496,9.83190826 L9.31853631,19.8980215 C9.13850444,20.077999 8.84667277,20.077999 8.6666409,19.8980215 L4.10429516,15.3356758 C3.92431766,15.1556439 3.92431766,14.8638123 4.10429516,14.6837804 L14.1750187,4.61029065 C14.2614957,4.52354277 14.3789389,4.47477399 14.5014275,4.47474804 C14.6240489,4.4750181 14.7415108,4.52412649 14.8278362,4.61121271 Z" id="Shape-3" fill="#000000" fill-rule="nonzero"></path>
    </g>
</svg>