<?xml version="1.0" encoding="UTF-8"?>
<svg width="24px" height="24px" viewBox="0 0 24 24" version="1.1" xmlns="http://www.w3.org/2000/svg" xmlns:xlink="http://www.w3.org/1999/xlink">
    <!-- Generator: Sketch 52.6 (67491) - http://www.bohemiancoding.com/sketch -->
    <title>ic-ganancia</title>
    <desc>Created with Sketch.</desc>
    <g id="ic-ganancia" stroke="none" stroke-width="1" fill="none" fill-rule="evenodd">
        <path d="M5.7826087,3.91304348 C5.25433633,3.91304348 4.82608696,3.48479411 4.82608696,2.95652174 C4.82608696,2.42824937 5.25433633,2 5.7826087,2 L18.2173913,2 C18.7456637,2 19.173913,2.42824937 19.173913,2.95652174 C19.173913,3.48479411 18.7456637,3.91304348 18.2173913,3.91304348 L5.7826087,3.91304348 Z M3.86956522,7.26086957 C3.34129285,7.26086957 2.91304348,6.8326202 2.91304348,6.30434783 C2.91304348,5.77607546 3.34129285,5.34782609 3.86956522,5.34782609 L20.1304348,5.34782609 C20.6587072,5.34782609 21.0869565,5.77607546 21.0869565,6.30434783 C21.0869565,6.8326202 20.6587072,7.26086957 20.1304348,7.26086957 L3.86956522,7.26086957 Z M22.0434783,8.69565217 C22.5717506,8.69565217 23,9.12390154 23,9.65217391 L23,21.1304348 C23,21.6587072 22.5717506,22.0869565 22.0434783,22.0869565 L1.95652174,22.0869565 C1.42824937,22.0869565 1,21.6587072 1,21.1304348 L1,9.65217391 C1,9.12390154 1.42824937,8.69565217 1.95652174,8.69565217 L22.0434783,8.69565217 Z M12,18.7391304 C13.8489533,18.7391304 15.3478261,17.2402576 15.3478261,15.3913043 C15.3478261,13.5423511 13.8489533,12.0434783 12,12.0434783 C10.1510467,12.0434783 8.65217391,13.5423511 8.65217391,15.3913043 C8.65217391,17.2402576 10.1510467,18.7391304 12,18.7391304 Z" id="Shape-3" fill="#000000" fill-rule="nonzero"></path>
    </g>
</svg>