<?xml version="1.0" encoding="UTF-8"?>
<svg width="24px" height="24px" viewBox="0 0 24 24" version="1.1" xmlns="http://www.w3.org/2000/svg" xmlns:xlink="http://www.w3.org/1999/xlink">
    <!-- Generator: Sketch 52.6 (67491) - http://www.bohemiancoding.com/sketch -->
    <title>ic-help</title>
    <desc>Created with Sketch.</desc>
    <g id="ic-help" stroke="none" stroke-width="1" fill="none" fill-rule="evenodd">
        <path d="M12,1 C5.92486775,1 1,5.92486775 1,12 C1,18.0751322 5.92486775,23 12,23 C18.0751322,23 23,18.0751322 23,12 C22.9934322,5.92759029 18.0724097,1.00656778 12,1 Z M12,18.4166667 C11.2406085,18.4166667 10.625,17.8010582 10.625,17.0416667 C10.625,16.2822751 11.2406085,15.6666667 12,15.6666667 C12.7593915,15.6666667 13.375,16.2822751 13.375,17.0416667 C13.375,17.8010582 12.7593915,18.4166667 12,18.4166667 Z M13.4666667,12.8433333 C13.1324609,12.9891926 12.9164899,13.3192684 12.9166667,13.6839167 C12.9166667,14.1901777 12.506261,14.6005833 12,14.6005833 C11.493739,14.6005833 11.0833333,14.1901777 11.0833333,13.6839167 C11.0831676,12.5903045 11.7310212,11.6005282 12.7333333,11.1630833 C13.5726501,10.7967753 14.0129347,9.86730304 13.7646865,8.98582306 C13.5164384,8.10434308 12.6558059,7.54124355 11.7486815,7.66677974 C10.841557,7.79231593 10.166195,8.56798044 10.1666667,9.48375 C10.1666667,9.99001102 9.75626102,10.4004167 9.25,10.4004167 C8.74373898,10.4004167 8.33333333,9.99001102 8.33333333,9.48375 C8.33330561,7.65244284 9.68447166,6.1019111 11.4985741,5.85147526 C13.3126766,5.60103941 15.0333998,6.72749854 15.5295392,8.49031775 C16.0256787,10.253137 15.1450874,12.1117271 13.4666667,12.84425 L13.4666667,12.8433333 Z" id="Shape" fill="#000000" fill-rule="nonzero"></path>
    </g>
</svg>