<?xml version="1.0" encoding="UTF-8"?>
<svg width="24px" height="24px" viewBox="0 0 24 24" version="1.1" xmlns="http://www.w3.org/2000/svg" xmlns:xlink="http://www.w3.org/1999/xlink">
    <!-- Generator: Sketch 52.6 (67491) - http://www.bohemiancoding.com/sketch -->
    <title>ic-requests</title>
    <desc>Created with Sketch.</desc>
    <g id="ic-requests" stroke="none" stroke-width="1" fill="none" fill-rule="evenodd">
        <g id="icon" transform="translate(1.000000, 1.000000)" fill="#000000" fill-rule="nonzero">
            <path d="M11,0 C4.92486775,-3.71994563e-16 7.43989126e-16,4.92486775 0,11 C-7.43989126e-16,17.0751322 4.92486775,22 11,22 C17.0751322,22 22,17.0751322 22,11 C21.9934322,4.92759029 17.0724097,0.00656777698 11,0 Z M11,19.7083333 C6.1905203,19.7083333 2.29166667,15.8094797 2.29166667,11 C2.29166667,6.1905203 6.1905203,2.29166667 11,2.29166667 C15.8094797,2.29166667 19.7083333,6.1905203 19.7083333,11 C19.7027768,15.8071762 15.8071762,19.7027768 11,19.7083333 Z" id="Shape"></path>
            <circle id="Oval" cx="11" cy="5.95833333" r="2.75"></circle>
            <path d="M11,9.625 C8.74830337,9.60258848 6.90318767,11.4067016 6.875,13.6583333 L6.875,16.0416667 C6.875,16.2947972 7.08020282,16.5 7.33333333,16.5 L8.54608333,16.5 C8.6638631,16.4998807 8.76255541,16.5890605 8.77433333,16.70625 L8.94575,18.3800833 C8.96981334,18.6147996 9.16813995,18.7928969 9.40408333,18.7916667 L12.6014167,18.7916667 C12.83736,18.7928969 13.0356867,18.6147996 13.05975,18.3800833 L13.2311667,16.70625 C13.242706,16.5911272 13.3382477,16.5026627 13.4539167,16.5 L14.6666667,16.5 C14.9197972,16.5 15.125,16.2947972 15.125,16.0416667 L15.125,13.6583333 C15.0968123,11.4067016 13.2516966,9.60258848 11,9.625 Z" id="Shape"></path>
            <path d="M11,0 C4.92486775,-3.71994563e-16 7.43989126e-16,4.92486775 0,11 C-7.43989126e-16,17.0751322 4.92486775,22 11,22 C17.0751322,22 22,17.0751322 22,11 C21.9934322,4.92759029 17.0724097,0.00656777698 11,0 Z M11,19.7083333 C6.1905203,19.7083333 2.29166667,15.8094797 2.29166667,11 C2.29166667,6.1905203 6.1905203,2.29166667 11,2.29166667 C15.8094797,2.29166667 19.7083333,6.1905203 19.7083333,11 C19.7027768,15.8071762 15.8071762,19.7027768 11,19.7083333 Z" id="Shape"></path>
            <circle id="Oval" cx="11" cy="5.95833333" r="2.75"></circle>
            <path d="M11,9.625 C8.74830337,9.60258848 6.90318767,11.4067016 6.875,13.6583333 L6.875,16.0416667 C6.875,16.2947972 7.08020282,16.5 7.33333333,16.5 L8.54608333,16.5 C8.6638631,16.4998807 8.76255541,16.5890605 8.77433333,16.70625 L8.94575,18.3800833 C8.96981334,18.6147996 9.16813995,18.7928969 9.40408333,18.7916667 L12.6014167,18.7916667 C12.83736,18.7928969 13.0356867,18.6147996 13.05975,18.3800833 L13.2311667,16.70625 C13.242706,16.5911272 13.3382477,16.5026627 13.4539167,16.5 L14.6666667,16.5 C14.9197972,16.5 15.125,16.2947972 15.125,16.0416667 L15.125,13.6583333 C15.0968123,11.4067016 13.2516966,9.60258848 11,9.625 Z" id="Shape"></path>
        </g>
    </g>
</svg>