<?xml version="1.0" encoding="UTF-8"?>
<svg width="24px" height="24px" viewBox="0 0 24 24" version="1.1" xmlns="http://www.w3.org/2000/svg" xmlns:xlink="http://www.w3.org/1999/xlink">
    <!-- Generator: Sketch 52.6 (67491) - http://www.bohemiancoding.com/sketch -->
    <title>ic-stats</title>
    <desc>Created with Sketch.</desc>
    <g id="ic-stats" stroke="none" stroke-width="1" fill="none" fill-rule="evenodd">
        <path d="M16.444,2.43266667 C19.766,2.43266667 22.472,5.51266667 22.472,9.29666667 C22.472,11.5406667 21.042,13.7186667 20.074,14.7746667 C18.226,16.8426667 12,22.1006667 12,22.1006667 C9.55272,20.0071467 7.09774,17.9164867 4.79148,15.6665467 L7.92164,12.3212267 L11.54306,15.7098867 L15.29516,11.6997267 L16.47546,12.8041267 L17.45556,8.59046667 L13.31648,9.84842667 L14.49678,10.9528267 L11.49158,14.1643867 L7.87016,10.7759467 L4.0261,14.8842267 L3.926,14.7746667 C2.958,13.7186667 1.528,11.5406667 1.528,9.29666667 C1.528,5.51266667 4.234,2.43266667 7.556,2.43266667 C9.316,2.43266667 10.944,3.99466667 12.044,5.38066667 C13.144,3.99466667 14.684,2.43266667 16.444,2.43266667 Z" id="Shape" fill="#000000" fill-rule="nonzero"></path>
    </g>
</svg>