<?xml version="1.0" encoding="UTF-8"?>
<svg width="24px" height="24px" viewBox="0 0 24 24" version="1.1" xmlns="http://www.w3.org/2000/svg" xmlns:xlink="http://www.w3.org/1999/xlink">
    <!-- Generator: Sketch 52.6 (67491) - http://www.bohemiancoding.com/sketch -->
    <title>ic-streaming-videocamera-off</title>
    <desc>Created with Sketch.</desc>
    <g id="ic-streaming-videocamera-off" stroke="none" stroke-width="1" fill="none" fill-rule="evenodd">
        <g id="Group" transform="translate(1.000000, 1.000000)" fill="#000000">
            <path d="M21.27675,4.51641667 L14.47325,9.80833333 C14.0754167,10.11725 14.0754167,10.6241667 14.47325,10.9330833 L21.27675,16.225 C21.6736667,16.5339167 22,16.3744167 22,15.87025 L22,4.87025 C22,4.367 21.6736667,4.2075 21.27675,4.51641667 Z" id="Path"></path>
            <path d="M1.83333333,16.7869167 L11.9166667,16.7869167 C12.7031667,16.7869167 13.3705,16.28825 13.629,15.5915833 L5.48166667,7.44608333 C5.48716667,7.50383333 5.5,7.56066667 5.5,7.62116667 C5.5,8.63316667 4.67866667,9.4545 3.66666667,9.4545 C2.65375,9.4545 1.83333333,8.63316667 1.83333333,7.62116667 C1.83333333,6.60916667 2.65375,5.78783333 3.66666667,5.78783333 C3.72533333,5.78783333 3.78308333,5.80066667 3.83991667,5.80616667 L1.98916667,3.9545 L1.83333333,3.9545 C0.820416667,3.9545 0,4.77583333 0,5.78783333 L0,14.9545 C0,15.9665 0.820416667,16.7869167 1.83333333,16.7869167 Z" id="Path"></path>
            <path d="M11.9166667,3.95358333 L7.17566667,3.95358333 L13.75,10.527 L13.75,5.78691667 C13.75,4.77491667 12.9286667,3.95358333 11.9166667,3.95358333 Z" id="Path"></path>
            <polygon id="Rectangle" transform="translate(10.999978, 10.371138) rotate(-45.000000) translate(-10.999978, -10.371138) " points="10.0828617 -3.37873012 11.9170941 -3.37873012 11.9170941 24.1210062 10.0828617 24.1210062"></polygon>
        </g>
    </g>
</svg>