<?xml version="1.0" encoding="UTF-8"?>
<svg width="24px" height="24px" viewBox="0 0 24 24" version="1.1" xmlns="http://www.w3.org/2000/svg" xmlns:xlink="http://www.w3.org/1999/xlink">
    <!-- Generator: Sketch 52.6 (67491) - http://www.bohemiancoding.com/sketch -->
    <title>ic-settings</title>
    <desc>Created with Sketch.</desc>
    <g id="ic-settings" stroke="none" stroke-width="1" fill="none" fill-rule="evenodd">
        <path d="M18.875,1 L5.125,1 C2.8478725,1.00252593 1.00252593,2.8478725 1,5.125 L1,18.875 C1,21.1531746 2.84682541,23 5.125,23 L18.875,23 C21.1531746,23 23,21.1531746 23,18.875 L23,5.125 C22.9974741,2.8478725 21.1521275,1.00252593 18.875,1 Z M17.6365833,13.1504167 L18.3515833,13.5638333 C18.5919615,13.7024757 18.7673917,13.9309596 18.8392555,14.1989875 C18.9111193,14.4670154 18.8735256,14.7526154 18.73475,14.9929167 L17.9500833,16.3523333 C17.811441,16.5927115 17.5829571,16.7681417 17.3149292,16.8400055 C17.0469013,16.9118693 16.7613013,16.8742756 16.521,16.7355 L15.8041667,16.3211667 C15.2300051,16.8282618 14.5597927,17.2148029 13.8333333,17.4578333 L13.8333333,18.2874167 C13.8330909,18.5653724 13.722315,18.8318204 13.525427,19.0280207 C13.3285389,19.2242209 13.0617049,19.3340636 12.78375,19.3333333 L11.2153333,19.3333333 C10.9375371,19.3338199 10.6709387,19.2238696 10.4742491,19.0276958 C10.2775595,18.8315219 10.1669095,18.5652132 10.1666667,18.2874167 L10.1666667,17.4624167 C9.43957221,17.2159032 8.76871753,16.8273496 8.19308333,16.3193333 L7.47716667,16.73275 C7.23700504,16.8714827 6.9515434,16.909052 6.68366456,16.8371821 C6.41578572,16.7653122 6.18746574,16.589899 6.049,16.3495833 L5.26341667,14.9901667 C5.12464112,14.7498654 5.08704736,14.4642654 5.15891116,14.1962375 C5.23077495,13.9282096 5.4062052,13.6997257 5.64658333,13.5610833 L6.36341667,13.14675 C6.21032116,12.3948528 6.21032116,11.6198139 6.36341667,10.8679167 L5.64841667,10.4545 C5.40803853,10.3158576 5.23260829,10.0873737 5.16074449,9.81934585 C5.0888807,9.55131796 5.12647445,9.26571793 5.26525,9.02541667 L6.04991667,7.666 C6.33928022,7.1661906 6.97875208,6.99514521 7.479,7.28375 L8.19675,7.69716667 C8.77085091,7.19112053 9.44073442,6.80552448 10.1666667,6.56325 L10.1666667,5.73366667 C10.1666667,5.15551658 10.6353499,4.68683333 11.2135,4.68683333 L12.7819167,4.68683333 C13.0603474,4.68561427 13.3277925,4.79536692 13.5251043,4.99181854 C13.722416,5.18827016 13.833336,5.45523326 13.8333333,5.73366667 L13.8333333,6.55866667 C14.5613037,6.80385351 15.2327089,7.19254539 15.8078333,7.70175 L16.52375,7.28833333 C17.0239979,6.99972854 17.6634698,7.17077393 17.9528333,7.67058333 L18.7375,9.03 C18.8762756,9.27030127 18.9138693,9.5559013 18.8420055,9.82392918 C18.7701417,10.0919571 18.5947115,10.320441 18.3543333,10.4590833 L17.6384167,10.8734167 C17.7911106,11.6247995 17.790487,12.3992807 17.6365833,13.1504167 Z M12,14.761 C13.5187831,14.761 14.75,13.5297831 14.75,12.011 C14.75,10.4922169 13.5187831,9.261 12,9.261 C10.4812169,9.261 9.25,10.4922169 9.25,12.011 C9.25,13.5297831 10.4812169,14.761 12,14.761 Z" id="Shape" fill="#000000" fill-rule="nonzero"></path>
    </g>
</svg>