<?xml version="1.0" encoding="UTF-8"?>
<svg width="24px" height="24px" viewBox="0 0 24 24" version="1.1" xmlns="http://www.w3.org/2000/svg" xmlns:xlink="http://www.w3.org/1999/xlink">
    <!-- Generator: Sketch 52.6 (67491) - http://www.bohemiancoding.com/sketch -->
    <title>ic-search</title>
    <desc>Created with Sketch.</desc>
    <g id="ic-search" stroke="none" stroke-width="1" fill="none" fill-rule="evenodd">
        <path d="M22.4551602,22.461884 C23.1702034,21.7466248 23.1702034,20.5871898 22.4551602,19.8719306 L18.728668,16.1454384 C18.652498,16.0688548 18.6399216,15.9495697 18.6984458,15.8587852 C21.3765373,11.7280628 20.5053869,6.24222977 16.6793943,3.14435606 C12.8534017,0.0464823501 7.30635717,0.335557576 3.82309638,3.81434117 C0.339835587,7.29312476 0.0436261407,12.8397929 3.1365764,16.6697667 C6.22952666,20.4997406 11.7142347,21.3779459 15.8483981,18.7051695 C15.9390093,18.6459224 16.0587882,18.6585508 16.1350514,18.7353917 L19.8615436,22.461884 C20.2051768,22.8063869 20.6717658,23 21.1583519,23 C21.6449381,23 22.111527,22.8063869 22.4551602,22.461884 Z M10.6281952,2.85040576 C14.9274631,2.85040576 18.4127083,6.33565102 18.4127083,10.6349189 C18.4127083,14.9341868 14.9274631,18.4194321 10.6281952,18.4194321 C6.32892729,18.4194321 2.84368204,14.9341868 2.84368204,10.6349189 C2.84872864,6.33774312 6.3310194,2.85545237 10.6281952,2.85040576 Z" id="Shape" fill="#000000" fill-rule="nonzero"></path>
    </g>
</svg>