<?xml version="1.0" encoding="UTF-8"?>
<svg width="24px" height="24px" viewBox="0 0 24 24" version="1.1" xmlns="http://www.w3.org/2000/svg" xmlns:xlink="http://www.w3.org/1999/xlink">
    <!-- Generator: Sketch 52.6 (67491) - http://www.bohemiancoding.com/sketch -->
    <title>ic-streaming-mic-off</title>
    <desc>Created with Sketch.</desc>
    <g id="ic-streaming-mic-off" stroke="none" stroke-width="1" fill="none" fill-rule="evenodd">
        <path d="M22.7331719,21.4415268 L22.7267547,21.4378598 C23.0586123,21.7970861 23.0500607,22.3535578 22.7073216,22.7024172 C22.3645825,23.0512766 21.8083493,23.0696752 21.4433061,22.744227 L21.4368889,22.7378098 L1.26841168,2.56933259 C0.910529441,2.21134226 0.910529441,1.63103989 1.26841168,1.27304956 C1.62904348,0.92160364 2.20406291,0.92160364 2.56469471,1.27304956 L6.34170044,5.04547154 C6.39907777,5.10230984 6.48205344,5.12490615 6.56032768,5.1050091 C6.63860192,5.08511205 6.70071475,5.02563474 6.72398476,4.94829615 C7.49583426,2.32510907 10.0774021,0.667180636 12.7839311,1.05649167 C15.49046,1.4458027 17.500077,3.76413377 17.5012856,6.49851865 L17.5012856,12.4573869 C17.5043352,13.4284576 17.2486588,14.382814 16.7605524,15.2223018 C16.7096782,15.311667 16.7242736,15.4239391 16.7963056,15.4973265 L17.4636989,16.163803 C17.5118323,16.2121026 17.5792348,16.2360304 17.6470487,16.2288922 C17.7162687,16.2215946 17.7783772,16.1831144 17.8157305,16.1243828 C18.5102211,15.0275219 18.8781177,13.7556235 18.876409,12.4573869 L18.876409,10.1655145 C18.876409,9.65920804 19.2868515,9.24876554 19.793158,9.24876554 C20.2994645,9.24876554 20.709907,9.65920804 20.709907,10.1655145 L20.709907,12.4573869 C20.7132228,14.274492 20.145267,16.0466681 19.0863445,17.5233417 C19.0203249,17.6141305 19.0304491,17.7395147 19.11018,17.8185349 L22.7331719,21.4415268 Z M6.89174982,9.65855233 L14.3339179,17.1025539 C14.3852865,17.1558119 14.4077822,17.230594 14.3943216,17.3033535 C14.3808611,17.3761131 14.3331006,17.4378978 14.2660785,17.4692535 C12.5638841,18.2385411 10.5876021,18.0913785 9.018118,17.0784675 C7.44863393,16.0655564 6.50047083,14.3253454 6.50029801,12.4573869 L6.50029801,9.81990015 C6.50050279,9.7272421 6.55648022,9.64382296 6.64214683,9.60851307 C6.72781343,9.57320318 6.82631362,9.59295005 6.89174982,9.65855233 Z M12.0007918,19.3330041 C13.2008307,19.3340442 14.3799488,19.0187906 15.4193487,18.4190054 C15.5088494,18.3680451 15.6213514,18.3830454 15.6943734,18.4556754 L16.6945465,19.4558485 C16.7437716,19.5050643 16.7679619,19.5739841 16.7602945,19.6431687 C16.7526272,19.7123533 16.7139331,19.7743039 16.6551263,19.8115471 C15.5843988,20.4938822 14.3765564,20.9320733 13.117392,21.0949957 C13.0028803,21.1093631 12.9171065,21.2069407 12.9175408,21.3223494 L12.9175408,22.083251 C12.9175408,22.5895575 12.5070983,23 12.0007918,23 C11.4944853,23 11.0840428,22.5895575 11.0840428,22.083251 L11.0840428,21.3223494 C11.0844771,21.2069407 10.9987033,21.1093631 10.8841916,21.0949957 C6.54478213,20.5283029 3.29714849,16.8336393 3.29167664,12.4573869 L3.29167664,10.1655145 C3.29167664,9.65920804 3.70211913,9.24876554 4.2084256,9.24876554 C4.71473208,9.24876554 5.12517457,9.65920804 5.12517457,10.1655145 L5.12517457,12.4573869 C5.12921677,16.2530099 8.20516885,19.3289619 12.0007918,19.3330041 Z" id="Shape-3" fill="#000000" fill-rule="nonzero"></path>
    </g>
</svg>