<?xml version="1.0" encoding="UTF-8"?>
<svg width="24px" height="24px" viewBox="0 0 24 24" version="1.1" xmlns="http://www.w3.org/2000/svg" xmlns:xlink="http://www.w3.org/1999/xlink">
    <!-- Generator: Sketch 52.6 (67491) - http://www.bohemiancoding.com/sketch -->
    <title>ic-star</title>
    <desc>Created with Sketch.</desc>
    <g id="ic-star" stroke="none" stroke-width="1" fill="none" fill-rule="evenodd">
        <path d="M22.816,8.935 C22.6030854,8.3598622 22.0552812,7.97751564 21.442,7.976 L15.5,7.976 L13.372,1.95 C13.156706,1.37424936 12.6048871,0.99412543 11.9902131,0.998147288 C11.3755391,1.00216915 10.8287416,1.38948141 10.621,1.968 L8.5,7.976 L2.558,7.976 C1.94194964,7.97656777 1.39197751,8.36222474 1.18153627,8.9412177 C0.971095028,9.52021066 1.14508647,10.169 1.617,10.565 L6.648,14.734 L4.537,21.068 C4.33363721,21.6733001 4.54575871,22.3405956 5.06130481,22.7173672 C5.57685092,23.0941388 6.27704982,23.0935857 6.792,22.716 L12,18.9 L17.207,22.718 C17.7213316,23.0948335 18.4203311,23.0957319 18.9356297,22.7202218 C19.4509282,22.3447116 19.664179,21.6790351 19.463,21.074 L17.351,14.736 L22.393,10.557 C22.8586499,10.1575718 23.0272783,9.51096374 22.816,8.935 Z" id="Shape" fill="#000000" fill-rule="nonzero"></path>
    </g>
</svg>