<?xml version="1.0" encoding="UTF-8"?>
<svg width="24px" height="24px" viewBox="0 0 24 24" version="1.1" xmlns="http://www.w3.org/2000/svg" xmlns:xlink="http://www.w3.org/1999/xlink">
    <!-- Generator: Sketch 52.6 (67491) - http://www.bohemiancoding.com/sketch -->
    <title>ic-time</title>
    <desc>Created with Sketch.</desc>
    <g id="ic-time" stroke="none" stroke-width="1" fill="none" fill-rule="evenodd">
        <path d="M12,1 C5.92486775,1 1,5.92486775 1,12 C1,18.0751322 5.92486775,23 12,23 C18.0751322,23 23,18.0751322 23,12 C22.9929281,5.92779943 18.0722006,1.00707187 12,1 Z M12,21.1666667 C6.93738979,21.1666667 2.83333333,17.0626102 2.83333333,12 C2.83333333,6.93738979 6.93738979,2.83333333 12,2.83333333 C17.0626102,2.83333333 21.1666667,6.93738979 21.1666667,12 C21.1611095,17.0603066 17.0603066,21.1611095 12,21.1666667 Z M16.7061667,15.4925 L12.4583333,11.5975833 L12.4583333,6.95833333 C12.4583333,6.45207231 12.0479277,6.04166667 11.5416667,6.04166667 C11.0354056,6.04166667 10.625,6.45207231 10.625,6.95833333 L10.625,12 C10.6247177,12.2571787 10.7324843,12.5026473 10.922,12.6765 L15.46775,16.84275 C15.8426824,17.179957 16.4185232,17.1550976 16.763,16.7868333 C17.1044159,16.4136062 17.0789818,15.8343658 16.7061667,15.4925 Z" id="Shape" fill="#000000" fill-rule="nonzero"></path>
    </g>
</svg>