<?xml version="1.0" encoding="UTF-8"?>
<svg width="24px" height="24px" viewBox="0 0 24 24" version="1.1" xmlns="http://www.w3.org/2000/svg" xmlns:xlink="http://www.w3.org/1999/xlink">
    <!-- Generator: Sketch 52.6 (67491) - http://www.bohemiancoding.com/sketch -->
    <title>ic-user</title>
    <desc>Created with Sketch.</desc>
    <g id="ic-user" stroke="none" stroke-width="1" fill="none" fill-rule="evenodd">
        <path d="M11.875,10.109375 C14.9710829,10.0785592 17.5081169,12.5592147 17.546875,15.6552083 L17.546875,18.9322917 C17.546875,19.2803461 17.2647211,19.5625 16.9166667,19.5625 L15.2491354,19.5625 C15.0900906,19.5661612 14.9587207,19.6878 14.9428542,19.8460937 L14.7071563,22.1476146 C14.6740692,22.4703495 14.4013701,22.7152333 14.0769479,22.7135417 L9.68061458,22.7135417 C9.35619243,22.7152333 9.08349335,22.4703495 9.05040625,22.1476146 L8.81470833,19.8460937 C8.79851369,19.6849583 8.66281176,19.562336 8.50086458,19.5625 L6.83333333,19.5625 C6.48527888,19.5625 6.203125,19.2803461 6.203125,18.9322917 L6.203125,15.6552083 C6.24188305,12.5592147 8.77891714,10.0785592 11.875,10.109375 Z M11.875,8.84895833 C9.78667329,8.84895833 8.09375,7.15603504 8.09375,5.06770833 C8.09375,2.97938162 9.78667329,1.28645833 11.875,1.28645833 C13.9633267,1.28645833 15.65625,2.97938162 15.65625,5.06770833 C15.65625,7.15603504 13.9633267,8.84895833 11.875,8.84895833 Z" id="Shape-2" fill="#000000" fill-rule="nonzero"></path>
    </g>
</svg>